<svg width="225" height="49" viewBox="0 0 225 49" fill="none" xmlns="http://www.w3.org/2000/svg">
<path d="M76.8559 33.0473H80.2879L73.5439 15.7673H69.7999L63.1279 33.0473H66.4639L67.9039 29.1113H75.4159L76.8559 33.0473ZM68.9119 26.3513L71.6719 18.7913L74.4079 26.3513H68.9119ZM82.3124 20.5673V37.8473H85.3364V31.4873C86.1764 32.6393 87.4484 33.3353 89.1764 33.3353C92.8004 33.3353 94.7684 30.5273 94.7684 26.8073C94.7684 23.0873 92.8004 20.2793 89.1764 20.2793C87.3764 20.2793 86.0564 21.0473 85.2164 22.2953V20.5673H82.3124ZM85.2884 26.8073C85.2884 24.4073 86.2964 22.7993 88.4804 22.7993C90.6884 22.7993 91.6964 24.4073 91.6964 26.8073C91.6964 29.2073 90.6884 30.8153 88.4804 30.8153C86.2964 30.8153 85.2884 29.2073 85.2884 26.8073ZM97.3236 20.5673V37.8473H100.348V31.4873C101.188 32.6393 102.46 33.3353 104.188 33.3353C107.812 33.3353 109.78 30.5273 109.78 26.8073C109.78 23.0873 107.812 20.2793 104.188 20.2793C102.388 20.2793 101.068 21.0473 100.228 22.2953V20.5673H97.3236ZM100.3 26.8073C100.3 24.4073 101.308 22.7993 103.492 22.7993C105.7 22.7993 106.708 24.4073 106.708 26.8073C106.708 29.2073 105.7 30.8153 103.492 30.8153C101.308 30.8153 100.3 29.2073 100.3 26.8073ZM117.975 33.3353C121.335 33.3353 123.399 31.3193 123.759 28.4393H120.735C120.471 29.9273 119.511 30.8153 117.975 30.8153C115.935 30.8153 114.927 29.2073 114.927 26.8073C114.927 24.4073 115.935 22.7993 117.975 22.7993C119.463 22.7993 120.447 23.6393 120.735 25.0313H123.759C123.375 22.2233 121.407 20.2793 117.975 20.2793C114.159 20.2793 111.855 23.0873 111.855 26.8073C111.855 30.5273 114.159 33.3353 117.975 33.3353ZM126.104 33.0473H129.128V25.6793C129.344 23.4953 130.976 22.9193 132.008 22.9193C133.736 22.9193 134.408 24.0233 134.408 25.5353V33.0473H137.408V25.1753C137.408 22.2473 135.848 20.2793 132.968 20.2793C131.24 20.2793 129.992 21.0713 129.128 22.1513V15.7673H126.104V33.0473ZM148.33 33.0473H151.186V23.9993C151.186 21.7193 149.482 20.2793 145.93 20.2793C142.93 20.2793 140.434 21.5753 140.386 24.5513H143.362C143.434 23.1833 144.586 22.6073 145.954 22.6073C147.562 22.6073 148.234 23.2073 148.234 24.3353V25.0553L144.61 25.7033C141.37 26.2553 139.81 27.3593 139.81 29.5673C139.81 31.9913 141.658 33.3353 144.37 33.3353C145.93 33.3353 147.25 32.9033 148.33 31.6073V33.0473ZM142.906 29.4713C142.906 28.3433 143.746 28.0073 145.162 27.7193L148.234 27.0953V28.1993C148.234 30.2633 146.626 31.1033 145.042 31.1033C143.578 31.1033 142.906 30.4553 142.906 29.4713ZM153.899 33.0473H156.899V20.5673H153.899V33.0473ZM153.899 18.5753H156.923V15.7673H153.899V18.5753ZM168.262 25.5353V33.0473H171.262V25.1753C171.262 22.2473 169.702 20.2793 166.822 20.2793C165.046 20.2793 163.75 21.1193 162.886 22.2713V20.5673H159.958V33.0473H162.982V25.6793C163.198 23.4953 164.83 22.9193 165.862 22.9193C167.59 22.9193 168.262 24.0233 168.262 25.5353ZM179.208 33.3353C182.424 33.3353 184.728 31.9913 184.728 29.4953C184.728 27.4073 183.624 26.2073 179.808 25.5833C177.312 25.1753 176.736 24.8153 176.736 23.9033C176.736 22.9673 177.696 22.4633 178.944 22.4633C180.336 22.4633 181.536 22.8713 181.608 24.5273H184.416C184.368 21.9353 182.544 20.2793 178.944 20.2793C175.848 20.2793 173.784 21.6713 173.784 24.0233C173.784 26.0633 174.888 27.2873 178.8 27.9593C181.368 28.3913 181.728 28.7993 181.728 29.6873C181.728 30.6233 180.744 31.1513 179.304 31.1513C177.624 31.1513 176.616 30.6233 176.424 28.9433H173.496C173.688 32.0873 175.896 33.3353 179.208 33.3353ZM187.293 33.0473H197.805V31.5353H188.949V15.7673H187.293V33.0473ZM200.308 33.0473H201.892V20.5673H200.308V33.0473ZM200.308 18.1433H201.916V15.7673H200.308V18.1433ZM209.752 33.3353C212.464 33.3353 214.672 32.1113 214.672 29.6633C214.672 27.6713 213.688 26.6153 210.04 26.0153C207.208 25.5353 206.488 25.0313 206.488 23.7113C206.488 22.3913 207.784 21.6713 209.416 21.6713C211.456 21.6713 212.728 22.4153 212.8 24.4073H214.408C214.36 21.7913 212.56 20.2793 209.416 20.2793C206.8 20.2793 204.88 21.5993 204.88 23.7353C204.88 25.7273 205.888 26.8553 209.608 27.4553C212.56 27.9353 213.04 28.5113 213.04 29.7593C213.04 31.2233 211.696 31.9433 209.752 31.9433C207.52 31.9433 206.296 31.0073 206.128 28.9673H204.496C204.64 31.8473 206.68 33.3353 209.752 33.3353ZM218.525 16.7273V20.5673H216.197V21.9833H218.525V30.1913C218.525 31.9673 219.125 33.0473 221.309 33.0473H223.613V31.6313H221.573C220.445 31.6313 220.133 31.0553 220.133 30.0233V21.9833H223.613V20.5673H220.133V16.7273H218.525Z" fill="white"/>
<rect x="1" y="1" width="46.4914" height="46.6838" rx="7" fill="url(#paint0_linear_16_40)" stroke="black" stroke-width="2"/>
<g clip-path="url(#clip0_16_40)">
<path d="M39.5786 30.9618V30.7375C39.5786 29.4717 39.2264 28.2214 38.563 27.1219L39.5786 30.9618ZM39.5786 30.9618C39.4973 33.4585 38.0627 35.7671 35.7861 37.0241L35.786 37.0241C34.6291 37.6632 33.316 38.0016 31.9888 38.0016C29.2719 38.0016 26.7478 36.6063 25.3964 34.3671L25.1713 33.9938L27.4097 30.2893L28.7623 32.5314L28.7623 32.5315C29.4376 33.6497 30.649 34.3135 31.9888 34.3135C32.6343 34.3135 33.2559 34.1524 33.8357 33.8363L33.8369 33.8356C35.6103 32.8553 36.2298 30.6683 35.201 28.9578L35.2007 28.9573L31.6295 23.0487L31.6295 23.0487L27.5612 16.3146C27.4904 16.1836 27.4131 16.0658 27.343 15.9634C27.2528 15.8288 27.1442 15.6947 27.0442 15.5906C26.9947 15.5322 26.9399 15.4763 26.8911 15.4295C26.8183 15.3565 26.7373 15.2857 26.6662 15.2327C26.5828 15.1581 26.4936 15.0932 26.3862 15.0224L26.3847 15.0213L26.2845 14.9564L26.2827 14.9552L26.2824 14.955L26.2768 14.9513L26.2579 14.9393C26.2487 14.9335 26.2323 14.9234 26.2142 14.9137C26.1115 14.8466 26.002 14.7873 25.8861 14.7354C25.8121 14.7001 25.7339 14.6645 25.6525 14.6358L25.649 14.6346C25.6479 14.6342 25.6467 14.6337 25.6456 14.6333C25.6437 14.6326 25.6416 14.6319 25.6394 14.6312L25.6258 14.6264C25.546 14.5968 25.4603 14.5663 25.3793 14.5417L25.3065 14.7809M39.5786 30.9618L38.563 27.1218L30.9241 14.4809L30.9201 14.4743L30.9165 14.4675C30.8845 14.4063 30.8698 14.382 30.856 14.3632L30.8501 14.3551L30.8448 14.3465C30.7379 14.1729 30.6419 14.0267 30.5459 13.8874C30.451 13.753 30.3487 13.6182 30.2426 13.4863C30.1428 13.3637 30.0344 13.2368 29.924 13.1214L29.9177 13.1148L29.9119 13.1078C29.8759 13.0642 29.85 13.0376 29.8191 13.006C29.8108 12.9975 29.8022 12.9887 29.793 12.9791L29.753 12.9409L29.7503 12.9383L29.7503 12.9383C29.6315 12.8212 29.5148 12.7098 29.3885 12.5992L29.3881 12.5988C29.1652 12.4027 28.9357 12.2239 28.7106 12.0692L28.7036 12.0644L28.7037 12.0643C28.6396 12.017 28.5812 11.9799 28.5209 11.9415C28.514 11.9371 28.5071 11.9328 28.5002 11.9283C28.4706 11.91 28.4454 11.894 28.4219 11.8791C28.3891 11.8583 28.3596 11.8396 28.3259 11.8195L28.3233 11.8179L28.3233 11.8179C28.2453 11.77 28.1771 11.7311 28.1051 11.69C28.0878 11.6802 28.0704 11.6702 28.0525 11.66L27.7443 11.4975C27.713 11.4829 27.6815 11.4682 27.6497 11.4534C27.5591 11.411 27.4669 11.3679 27.3717 11.326L27.3319 11.3102L27.3267 11.3081L27.3267 11.308C27.1034 11.2132 26.8777 11.129 26.6496 11.0585L26.6459 11.0574L26.6459 11.0573C26.4915 11.007 26.3362 10.9631 26.1759 10.9223L26.1759 10.9223C25.5538 10.7635 24.9065 10.6823 24.2518 10.6823C23.4084 10.6857 22.5986 10.8108 21.825 11.0569C21.5651 11.1467 21.355 11.2239 21.1612 11.3099L21.1524 11.3138L21.1523 11.3137C21.0694 11.3467 21.0006 11.3762 20.9282 11.4092L20.7988 11.471L20.7275 11.5051C20.5449 11.5958 20.3615 11.6969 20.1701 11.812C20.1293 11.8367 20.0971 11.8571 20.0632 11.8786C20.0389 11.894 20.0138 11.91 19.9841 11.9283C19.976 11.9335 19.968 11.9386 19.9601 11.9436C19.9003 11.9816 19.8455 12.0164 19.7958 12.0533L19.788 12.0591L19.7879 12.059C19.5532 12.2197 19.3236 12.4018 19.0915 12.6031C18.9696 12.7097 18.8536 12.8205 18.7352 12.937C18.6766 12.9963 18.6211 13.056 18.5627 13.1188C18.4477 13.2424 18.3353 13.3668 18.2308 13.4932C18.1328 13.617 18.0339 13.752 17.9331 13.8932L17.9324 13.8941L17.9324 13.8941C17.8815 13.9646 17.8356 14.037 17.7846 14.1176C17.7803 14.1244 17.7759 14.1313 17.7715 14.1383V14.2421L17.6942 14.3159L17.6119 14.3946L17.5718 14.4664L17.366 14.3516H17.3535L17.57 14.4767C17.4979 14.6013 17.4292 14.7292 17.3637 14.8604C17.3621 14.8644 17.3607 14.8677 17.3599 14.8697L17.3596 14.8704C17.3593 14.8712 17.359 14.8717 17.3589 14.8722L17.3541 14.8858L17.3466 14.9006C17.2486 15.0946 17.1615 15.2947 17.0885 15.4973L17.0874 15.5002L17.0874 15.5002C16.7947 16.2822 16.6432 17.1111 16.6432 17.9429C16.6432 19.2122 16.9955 20.4623 17.6622 21.5615L17.6626 21.5621L18.5571 23.0452L18.5572 23.0454L21.0854 27.2282L23.3238 23.5235L21.0285 19.7265L21.0282 19.726C20.53 18.8974 20.3949 17.9334 20.6545 17.0143C20.7301 16.7335 20.8487 16.455 21.0051 16.1896L21.01 16.1813L21.0154 16.1735L21.0286 16.1547C21.0758 16.0662 21.1285 15.9849 21.1903 15.9091C21.3084 15.7459 21.4503 15.5772 21.6097 15.4276C21.6422 15.3931 21.6779 15.3591 21.7139 15.3281C21.8082 15.2387 21.9128 15.1568 22.0183 15.0883C22.0794 15.0381 22.1451 14.9911 22.2204 14.95C22.316 14.8874 22.447 14.8146 22.5952 14.7438L22.6001 14.7414L22.6002 14.7415L22.7316 14.6821L22.7336 14.6813L22.7336 14.6813C22.8339 14.637 22.9416 14.5948 23.0626 14.5597C23.2828 14.4851 23.5153 14.4337 23.7447 14.4008L23.7516 14.3998L23.7516 14.3999C24.1878 14.3496 24.4625 14.3658 24.7216 14.4017H24.7299L24.7447 14.4035C24.747 14.4038 24.7497 14.4041 24.7526 14.4044C24.7746 14.407 24.8117 14.4113 24.8487 14.419C24.905 14.4262 24.9621 14.4362 25.0177 14.4494C25.0291 14.4508 25.0393 14.4526 25.0482 14.4544C25.0564 14.4561 25.0635 14.4578 25.0677 14.4588L25.0701 14.4594C25.1173 14.4681 25.1625 14.4799 25.198 14.4891L25.1993 14.4895C25.2657 14.5055 25.3271 14.525 25.3793 14.5417L25.3824 14.5427L25.3065 14.7809M25.3065 14.7809C25.3869 14.8053 25.4745 14.8367 25.5585 14.8681L25.1386 14.732L25.1386 14.732C25.197 14.746 25.2518 14.7634 25.3065 14.7809ZM25.6718 14.6443L25.6713 14.6441L25.6718 14.6443Z" fill="#101216" stroke="black" stroke-width="0.5"/>
<path d="M27.4663 19.7271C27.5197 19.6401 27.569 19.5515 27.614 19.4613L29.8599 23.1745L27.1958 27.5823L27.1947 27.5841L27.1338 27.6869L27.1326 27.6888L23.0952 34.3669L23.0951 34.3671C21.7437 36.6063 19.2196 38.0016 16.5027 38.0016C15.8518 38.0016 15.2042 37.9205 14.5703 37.7614C13.9336 37.5991 13.3036 37.3522 12.709 37.0241L12.7089 37.024C10.947 36.0535 9.6919 34.4876 9.1702 32.6211L9.17011 32.6208C8.64495 30.7512 8.91575 28.7981 9.92847 27.1219C9.92847 27.1219 9.92847 27.1219 9.92848 27.1219L15.074 18.6069C15.1787 19.9227 15.5928 21.2023 16.2853 22.3443L16.7875 23.1746L13.2947 28.957C13.2946 28.9571 13.2945 28.9572 13.2945 28.9574C12.7949 29.781 12.6651 30.7454 12.9206 31.6696L12.9206 31.6699C13.1768 32.5926 13.7989 33.3614 14.6582 33.8356C15.2317 34.1525 15.8539 34.3135 16.5027 34.3135C17.8275 34.3135 19.0647 33.636 19.7292 32.5315C19.7293 32.5313 19.7293 32.5312 19.7294 32.5311L21.2993 29.935L21.2993 29.9349L25.0932 23.6528L25.0933 23.6527L27.4658 19.7281C27.4659 19.7277 27.4661 19.7274 27.4663 19.7271Z" fill="#101216" stroke="black" stroke-width="0.5"/>
</g>
<rect width="48.4914" height="48.6838" rx="8" fill="url(#paint1_linear_16_40)" style="mix-blend-mode:screen"/>
<rect width="48.4914" height="48.6838" rx="8" fill="url(#paint2_linear_16_40)" style="mix-blend-mode:overlay"/>
<defs>
<linearGradient id="paint0_linear_16_40" x1="18.1843" y1="19.1258" x2="32.0903" y2="32.1111" gradientUnits="userSpaceOnUse">
<stop stop-color="#64CA6E"/>
<stop offset="1" stop-color="#EE8137"/>
</linearGradient>
<linearGradient id="paint1_linear_16_40" x1="18.1843" y1="19.1258" x2="32.0903" y2="32.1111" gradientUnits="userSpaceOnUse">
<stop stop-color="#64CA6E" stop-opacity="0"/>
<stop offset="1" stop-color="#EE8137" stop-opacity="0.24"/>
</linearGradient>
<linearGradient id="paint2_linear_16_40" x1="18.1843" y1="19.1258" x2="32.0903" y2="32.1111" gradientUnits="userSpaceOnUse">
<stop stop-color="white" stop-opacity="0"/>
<stop offset="0.234375" stop-color="white" stop-opacity="0.56"/>
<stop offset="0.515625" stop-color="white" stop-opacity="0"/>
</linearGradient>
<clipPath id="clip0_16_40">
<rect width="31.173" height="27.8193" fill="white" transform="translate(8.65924 10.4323)"/>
</clipPath>
</defs>
</svg>
